<svg preserveAspectRatio="xMidYMid meet" data-bbox="12 12 176 176" viewBox="12 12 176 176" xmlns="http://www.w3.org/2000/svg" data-type="color" role="presentation" aria-hidden="true" fill="currentColor"><defs><style>#comp-kxqemcym svg [data-color="1"] {fill: #FFFFFF;}</style></defs>
    <g>
        <path fill="#009490" d="M52.7 78.1l48 22.2 46.2-21.2v-8.2H52.7v7.2z" data-color="1"></path>
        <path d="M99.3 107.1L52.7 85.6v44.3h94.2V86.5L102.1 107c-.8.5-1.9.5-2.8.1z" fill="#009490" data-color="1"></path>
        <path d="M100 12c-48.6 0-88 39.4-88 88s39.4 88 88 88 88-39.4 88-88-39.3-88-88-88zm53.9 121.5c0 1.8-1.5 3.3-3.3 3.3H49.9c-1.8 0-3.3-1.5-3.3-3.3V67.2c0-1.8 1.5-3.3 3.3-3.3h100.6c1.8 0 3.3 1.5 3.3 3.3l.1 66.3z" fill="#009490" data-color="1"></path>
    </g>
</svg>